<mxfile host="app.diagrams.net" modified="2021-12-06T17:06:14.794Z" agent="5.0 (Windows NT 10.0; Win64; x64) AppleWebKit/537.36 (KHTML, like Gecko) Chrome/96.0.4664.45 Safari/537.36" etag="wPoH-0cvaew_81Vx8w4c" version="15.9.1" type="github">
  <diagram id="L6CM4IUpl8WZcLLqEAe8" name="Page-1">
    <mxGraphModel dx="2067" dy="1812" grid="1" gridSize="10" guides="1" tooltips="1" connect="1" arrows="1" fold="1" page="1" pageScale="1" pageWidth="827" pageHeight="1169" math="0" shadow="0">
      <root>
        <mxCell id="0" />
        <mxCell id="1" parent="0" />
        <mxCell id="x-U8saCdWv5BzLE1M_aa-1847" value="&lt;font color=&quot;#23497d&quot;&gt;Equipo Local&lt;/font&gt;" style="swimlane;whiteSpace=wrap;fillColor=#D4E1F5;swimlaneFillColor=#D4E1F5;fontColor=#660000;fontFamily=Tahoma;html=1;strokeColor=none;startSize=50;" parent="1" vertex="1">
          <mxGeometry x="-250" y="20" width="330" height="1280" as="geometry">
            <mxRectangle x="20" y="20" width="80" height="23" as="alternateBounds" />
          </mxGeometry>
        </mxCell>
        <mxCell id="x-U8saCdWv5BzLE1M_aa-1848" value="Validar Documentos del Negocio" style="whiteSpace=wrap;shadow=0;fontColor=#FFFFFF;fontFamily=Helvetica;fontStyle=1;html=1;fontSize=12;plain-purple;strokeColor=none;fillColor=#23497D;gradientColor=none;" parent="x-U8saCdWv5BzLE1M_aa-1847" vertex="1">
          <mxGeometry x="30" y="140" width="120" height="60" as="geometry" />
        </mxCell>
        <mxCell id="x-U8saCdWv5BzLE1M_aa-1849" value="Elaborar Perfil Funcional de APIs" style="whiteSpace=wrap;strokeColor=none;fillColor=#23497D;shadow=0;fontColor=#FFFFFF;fontFamily=Helvetica;fontStyle=1;html=1;fontSize=12;" parent="x-U8saCdWv5BzLE1M_aa-1847" vertex="1">
          <mxGeometry x="30" y="270" width="120" height="60" as="geometry" />
        </mxCell>
        <mxCell id="x-U8saCdWv5BzLE1M_aa-1852" value="" style="edgeStyle=segmentEdgeStyle;strokeColor=#23497D;strokeWidth=2;html=1;endArrow=open;endFill=1;" parent="x-U8saCdWv5BzLE1M_aa-1847" source="x-U8saCdWv5BzLE1M_aa-1848" target="x-U8saCdWv5BzLE1M_aa-1849" edge="1">
          <mxGeometry width="100" height="100" relative="1" as="geometry">
            <mxPoint x="-10" y="110" as="sourcePoint" />
            <mxPoint x="90" y="185" as="targetPoint" />
          </mxGeometry>
        </mxCell>
        <mxCell id="x-U8saCdWv5BzLE1M_aa-1903" value="Solución Requerida por el Negocio (Journey)" style="shape=document;whiteSpace=wrap;verticalAlign=top;strokeColor=none;fillColor=#67B1E1;shadow=0;fontColor=#FFFFFF;fontFamily=Helvetica;fontStyle=1;html=1;fontSize=12;" parent="x-U8saCdWv5BzLE1M_aa-1847" vertex="1">
          <mxGeometry x="170" y="190" width="140" height="60" as="geometry" />
        </mxCell>
        <mxCell id="x-U8saCdWv5BzLE1M_aa-1905" value="" style="html=1;shape=mxgraph.flowchart.start_2;whiteSpace=wrap;fontColor=#FFFFFF;shadow=0;fontStyle=1;strokeColor=none;fillColor=#00CC00;" parent="x-U8saCdWv5BzLE1M_aa-1847" vertex="1">
          <mxGeometry x="75" y="80" width="30" height="30" as="geometry" />
        </mxCell>
        <mxCell id="x-U8saCdWv5BzLE1M_aa-1906" value="" style="edgeStyle=segmentEdgeStyle;strokeColor=#23497D;strokeWidth=2;html=1;endArrow=open;endFill=1;exitX=0.5;exitY=1;exitDx=0;exitDy=0;exitPerimeter=0;entryX=0.5;entryY=0;entryDx=0;entryDy=0;" parent="x-U8saCdWv5BzLE1M_aa-1847" source="x-U8saCdWv5BzLE1M_aa-1905" target="x-U8saCdWv5BzLE1M_aa-1848" edge="1">
          <mxGeometry width="100" height="100" relative="1" as="geometry">
            <mxPoint x="100" y="220" as="sourcePoint" />
            <mxPoint x="100" y="290" as="targetPoint" />
          </mxGeometry>
        </mxCell>
        <mxCell id="x-U8saCdWv5BzLE1M_aa-1907" value="Inicio" style="text;html=1;align=center;verticalAlign=middle;resizable=0;points=[];autosize=1;strokeColor=none;fillColor=none;fontColor=#00CC00;fontStyle=1" parent="x-U8saCdWv5BzLE1M_aa-1847" vertex="1">
          <mxGeometry x="65" y="60" width="50" height="20" as="geometry" />
        </mxCell>
        <mxCell id="x-U8saCdWv5BzLE1M_aa-1901" value="" style="endArrow=none;html=1;fontColor=#FFFFFF;shadow=0;fontSize=12;fontStyle=1;verticalAlign=middle;strokeColor=#67B1E1;fillColor=#008a00;entryX=0;entryY=0.5;entryDx=0;entryDy=0;strokeWidth=2;exitX=1;exitY=0.5;exitDx=0;exitDy=0;dashed=1;" parent="x-U8saCdWv5BzLE1M_aa-1847" source="x-U8saCdWv5BzLE1M_aa-1848" target="x-U8saCdWv5BzLE1M_aa-1897" edge="1">
          <mxGeometry width="50" height="50" relative="1" as="geometry">
            <mxPoint x="-70" y="180" as="sourcePoint" />
            <mxPoint x="140" y="110" as="targetPoint" />
            <Array as="points" />
          </mxGeometry>
        </mxCell>
        <mxCell id="x-U8saCdWv5BzLE1M_aa-1897" value="Requisitos Funcionales y No Funcionales" style="shape=document;whiteSpace=wrap;verticalAlign=top;strokeColor=none;fillColor=#67B1E1;shadow=0;fontColor=#FFFFFF;fontFamily=Helvetica;fontStyle=1;html=1;fontSize=12;" parent="x-U8saCdWv5BzLE1M_aa-1847" vertex="1">
          <mxGeometry x="170" y="80" width="130" height="80" as="geometry" />
        </mxCell>
        <mxCell id="v-S7Pm7b8aDOwCeWG9hE-6" value="¿Incluye &lt;br&gt;T-Open APIs?" style="rhombus;whiteSpace=wrap;html=1;shadow=0;fontColor=#FFFFFF;fontStyle=1;strokeColor=none;fillColor=#23497D;" vertex="1" parent="x-U8saCdWv5BzLE1M_aa-1847">
          <mxGeometry x="20" y="400" width="140" height="120" as="geometry" />
        </mxCell>
        <mxCell id="v-S7Pm7b8aDOwCeWG9hE-2" value="Perfil funcional de APIs" style="shape=document;whiteSpace=wrap;verticalAlign=top;strokeColor=none;fillColor=#67B1E1;shadow=0;fontColor=#FFFFFF;fontFamily=Helvetica;fontStyle=1;html=1;fontSize=12;" vertex="1" parent="x-U8saCdWv5BzLE1M_aa-1847">
          <mxGeometry x="180" y="350" width="110" height="60" as="geometry" />
        </mxCell>
        <mxCell id="v-S7Pm7b8aDOwCeWG9hE-3" value="" style="endArrow=none;html=1;fontColor=#FFFFFF;shadow=0;fontSize=12;fontStyle=1;verticalAlign=middle;strokeColor=#67B1E1;fillColor=#008a00;entryX=0;entryY=0.5;entryDx=0;entryDy=0;strokeWidth=2;exitX=1;exitY=0.5;exitDx=0;exitDy=0;dashed=1;" edge="1" parent="x-U8saCdWv5BzLE1M_aa-1847" source="x-U8saCdWv5BzLE1M_aa-1849" target="v-S7Pm7b8aDOwCeWG9hE-2">
          <mxGeometry width="50" height="50" relative="1" as="geometry">
            <mxPoint x="-40" y="340" as="sourcePoint" />
            <mxPoint x="-159.99999999999977" y="230" as="targetPoint" />
          </mxGeometry>
        </mxCell>
        <mxCell id="v-S7Pm7b8aDOwCeWG9hE-16" value="Continuar flujo de gobierno de APIs local" style="whiteSpace=wrap;strokeColor=none;fillColor=#23497D;shadow=0;fontColor=#FFFFFF;fontFamily=Helvetica;fontStyle=1;html=1;fontSize=12;" vertex="1" parent="x-U8saCdWv5BzLE1M_aa-1847">
          <mxGeometry x="30" y="560" width="120" height="70" as="geometry" />
        </mxCell>
        <mxCell id="v-S7Pm7b8aDOwCeWG9hE-17" value="" style="edgeStyle=segmentEdgeStyle;strokeColor=#23497D;strokeWidth=2;html=1;endArrow=open;endFill=1;exitX=0.5;exitY=1;exitDx=0;exitDy=0;entryX=0.5;entryY=0;entryDx=0;entryDy=0;" edge="1" parent="x-U8saCdWv5BzLE1M_aa-1847" target="v-S7Pm7b8aDOwCeWG9hE-16">
          <mxGeometry width="100" height="100" relative="1" as="geometry">
            <mxPoint x="90" y="520" as="sourcePoint" />
            <mxPoint x="-405" y="500" as="targetPoint" />
          </mxGeometry>
        </mxCell>
        <mxCell id="v-S7Pm7b8aDOwCeWG9hE-27" value="Perfil Técnico de T-Open APIs" style="shape=document;whiteSpace=wrap;verticalAlign=top;strokeColor=none;fillColor=#67B1E1;shadow=0;fontColor=#FFFFFF;fontFamily=Helvetica;fontStyle=1;html=1;fontSize=12;" vertex="1" parent="x-U8saCdWv5BzLE1M_aa-1847">
          <mxGeometry x="160" y="830" width="110" height="60" as="geometry" />
        </mxCell>
        <mxCell id="v-S7Pm7b8aDOwCeWG9hE-28" value="" style="endArrow=none;html=1;fontColor=#FFFFFF;shadow=0;fontSize=12;fontStyle=1;verticalAlign=middle;strokeColor=#67B1E1;fillColor=#008a00;entryX=0;entryY=0.5;entryDx=0;entryDy=0;strokeWidth=2;exitX=0.5;exitY=1;exitDx=0;exitDy=0;dashed=1;" edge="1" parent="x-U8saCdWv5BzLE1M_aa-1847" target="v-S7Pm7b8aDOwCeWG9hE-27" source="v-S7Pm7b8aDOwCeWG9hE-37">
          <mxGeometry width="50" height="50" relative="1" as="geometry">
            <mxPoint x="180" y="715" as="sourcePoint" />
            <mxPoint x="170.00000000000023" y="570" as="targetPoint" />
          </mxGeometry>
        </mxCell>
        <mxCell id="v-S7Pm7b8aDOwCeWG9hE-37" value="Elaborar Perfil Técnico de&lt;br&gt;T-Open APIs" style="whiteSpace=wrap;strokeColor=none;fillColor=#23497D;shadow=0;fontColor=#FFFFFF;fontFamily=Helvetica;fontStyle=1;html=1;fontSize=12;" vertex="1" parent="x-U8saCdWv5BzLE1M_aa-1847">
          <mxGeometry x="30" y="770" width="120" height="60" as="geometry" />
        </mxCell>
        <mxCell id="v-S7Pm7b8aDOwCeWG9hE-107" value="No" style="edgeLabel;html=1;align=center;verticalAlign=middle;resizable=0;points=[];fontSize=13;" vertex="1" connectable="0" parent="x-U8saCdWv5BzLE1M_aa-1847">
          <mxGeometry x="74.9957597779657" y="399.9980341000106" as="geometry">
            <mxPoint x="33" y="129" as="offset" />
          </mxGeometry>
        </mxCell>
        <mxCell id="x-U8saCdWv5BzLE1M_aa-1904" value="" style="endArrow=none;html=1;fontColor=#FFFFFF;shadow=0;fontSize=12;fontStyle=1;verticalAlign=middle;strokeColor=#67B1E1;fillColor=#008a00;entryX=0;entryY=0.5;entryDx=0;entryDy=0;strokeWidth=2;dashed=1;exitX=1;exitY=0.5;exitDx=0;exitDy=0;" parent="x-U8saCdWv5BzLE1M_aa-1847" target="x-U8saCdWv5BzLE1M_aa-1903" edge="1" source="x-U8saCdWv5BzLE1M_aa-1848">
          <mxGeometry width="50" height="50" relative="1" as="geometry">
            <mxPoint x="180" y="180" as="sourcePoint" />
            <mxPoint x="51.96499999999992" y="109" as="targetPoint" />
          </mxGeometry>
        </mxCell>
        <mxCell id="v-S7Pm7b8aDOwCeWG9hE-7" value="" style="edgeStyle=segmentEdgeStyle;strokeColor=#23497D;strokeWidth=2;html=1;endArrow=open;endFill=1;exitX=0.5;exitY=1;exitDx=0;exitDy=0;" edge="1" parent="x-U8saCdWv5BzLE1M_aa-1847" source="x-U8saCdWv5BzLE1M_aa-1849">
          <mxGeometry width="100" height="100" relative="1" as="geometry">
            <mxPoint x="90" y="340" as="sourcePoint" />
            <mxPoint x="90" y="400" as="targetPoint" />
          </mxGeometry>
        </mxCell>
        <mxCell id="v-S7Pm7b8aDOwCeWG9hE-112" value="Desarrollar&lt;br&gt;T-Open APIs" style="whiteSpace=wrap;strokeColor=none;fillColor=#23497D;shadow=0;fontColor=#FFFFFF;fontFamily=Helvetica;fontStyle=1;html=1;fontSize=12;" vertex="1" parent="x-U8saCdWv5BzLE1M_aa-1847">
          <mxGeometry x="30" y="910" width="120" height="60" as="geometry" />
        </mxCell>
        <mxCell id="v-S7Pm7b8aDOwCeWG9hE-113" value="Certificar&lt;br&gt;T-Open APIs" style="whiteSpace=wrap;strokeColor=none;fillColor=#23497D;shadow=0;fontColor=#FFFFFF;fontFamily=Helvetica;fontStyle=1;html=1;fontSize=12;" vertex="1" parent="x-U8saCdWv5BzLE1M_aa-1847">
          <mxGeometry x="30" y="1010" width="120" height="60" as="geometry" />
        </mxCell>
        <mxCell id="v-S7Pm7b8aDOwCeWG9hE-111" value="" style="edgeStyle=orthogonalEdgeStyle;rounded=1;orthogonalLoop=1;jettySize=auto;html=1;fontSize=11;strokeColor=#23497D;strokeWidth=2;endFill=1;endArrow=open;" edge="1" parent="x-U8saCdWv5BzLE1M_aa-1847" source="v-S7Pm7b8aDOwCeWG9hE-112" target="v-S7Pm7b8aDOwCeWG9hE-113">
          <mxGeometry relative="1" as="geometry" />
        </mxCell>
        <mxCell id="v-S7Pm7b8aDOwCeWG9hE-114" value="" style="endArrow=none;html=1;fontColor=#FFFFFF;shadow=0;fontSize=12;fontStyle=1;verticalAlign=middle;strokeColor=#67B1E1;fillColor=#008a00;entryX=0;entryY=0.5;entryDx=0;entryDy=0;strokeWidth=2;exitX=0.5;exitY=0;exitDx=0;exitDy=0;dashed=1;" edge="1" parent="x-U8saCdWv5BzLE1M_aa-1847" source="v-S7Pm7b8aDOwCeWG9hE-112" target="v-S7Pm7b8aDOwCeWG9hE-27">
          <mxGeometry width="50" height="50" relative="1" as="geometry">
            <mxPoint x="40" y="810" as="sourcePoint" />
            <mxPoint x="180" y="880" as="targetPoint" />
          </mxGeometry>
        </mxCell>
        <mxCell id="v-S7Pm7b8aDOwCeWG9hE-116" value="Realizar pase a producción de&lt;br&gt;T-Open APIs" style="whiteSpace=wrap;strokeColor=none;fillColor=#23497D;shadow=0;fontColor=#FFFFFF;fontFamily=Helvetica;fontStyle=1;html=1;fontSize=12;" vertex="1" parent="x-U8saCdWv5BzLE1M_aa-1847">
          <mxGeometry x="30" y="1110" width="120" height="60" as="geometry" />
        </mxCell>
        <mxCell id="v-S7Pm7b8aDOwCeWG9hE-117" value="" style="edgeStyle=orthogonalEdgeStyle;rounded=1;orthogonalLoop=1;jettySize=auto;html=1;fontSize=11;strokeColor=#23497D;strokeWidth=2;endFill=1;endArrow=open;" edge="1" parent="x-U8saCdWv5BzLE1M_aa-1847" target="v-S7Pm7b8aDOwCeWG9hE-116">
          <mxGeometry relative="1" as="geometry">
            <mxPoint x="90" y="1060" as="sourcePoint" />
          </mxGeometry>
        </mxCell>
        <mxCell id="v-S7Pm7b8aDOwCeWG9hE-118" value="T-Open APIs Operativas" style="shape=document;whiteSpace=wrap;verticalAlign=top;strokeColor=none;fillColor=#67B1E1;shadow=0;fontColor=#FFFFFF;fontFamily=Helvetica;fontStyle=1;html=1;fontSize=12;" vertex="1" parent="x-U8saCdWv5BzLE1M_aa-1847">
          <mxGeometry x="190" y="1070" width="110" height="60" as="geometry" />
        </mxCell>
        <mxCell id="v-S7Pm7b8aDOwCeWG9hE-119" value="" style="endArrow=none;html=1;fontColor=#FFFFFF;shadow=0;fontSize=12;fontStyle=1;verticalAlign=middle;strokeColor=#67B1E1;fillColor=#008a00;entryX=0;entryY=0.5;entryDx=0;entryDy=0;strokeWidth=2;exitX=1;exitY=0.5;exitDx=0;exitDy=0;dashed=1;" edge="1" parent="x-U8saCdWv5BzLE1M_aa-1847" target="v-S7Pm7b8aDOwCeWG9hE-118" source="v-S7Pm7b8aDOwCeWG9hE-116">
          <mxGeometry width="50" height="50" relative="1" as="geometry">
            <mxPoint x="150" y="1120" as="sourcePoint" />
            <mxPoint x="490" y="1070" as="targetPoint" />
          </mxGeometry>
        </mxCell>
        <mxCell id="v-S7Pm7b8aDOwCeWG9hE-122" value="Catálogo de&lt;br&gt;T-Open APIs" style="shape=document;whiteSpace=wrap;verticalAlign=top;strokeColor=none;fillColor=#67B1E1;shadow=0;fontColor=#FFFFFF;fontFamily=Helvetica;fontStyle=1;html=1;fontSize=12;" vertex="1" parent="x-U8saCdWv5BzLE1M_aa-1847">
          <mxGeometry x="180" y="272.5" width="110" height="55" as="geometry" />
        </mxCell>
        <mxCell id="v-S7Pm7b8aDOwCeWG9hE-138" value="" style="shape=image;html=1;verticalAlign=top;verticalLabelPosition=bottom;labelBackgroundColor=#ffffff;imageAspect=0;aspect=fixed;image=https://cdn2.iconfinder.com/data/icons/office-icon-set-3/128/users.png;sketch=1;fontSize=13;fontColor=#FF3333;fillColor=#FF3333;" vertex="1" parent="x-U8saCdWv5BzLE1M_aa-1847">
          <mxGeometry x="90" y="10" width="30" height="30" as="geometry" />
        </mxCell>
        <mxCell id="v-S7Pm7b8aDOwCeWG9hE-142" value="" style="endArrow=none;html=1;fontColor=#FFFFFF;shadow=0;fontSize=12;fontStyle=1;verticalAlign=middle;strokeColor=#67B1E1;fillColor=#008a00;entryX=0;entryY=0.5;entryDx=0;entryDy=0;strokeWidth=2;exitX=1;exitY=0.5;exitDx=0;exitDy=0;dashed=1;" edge="1" parent="x-U8saCdWv5BzLE1M_aa-1847" source="x-U8saCdWv5BzLE1M_aa-1849" target="v-S7Pm7b8aDOwCeWG9hE-122">
          <mxGeometry width="50" height="50" relative="1" as="geometry">
            <mxPoint x="160" y="310" as="sourcePoint" />
            <mxPoint x="190" y="390" as="targetPoint" />
          </mxGeometry>
        </mxCell>
        <mxCell id="x-U8saCdWv5BzLE1M_aa-1860" value="&lt;font color=&quot;#23497d&quot;&gt;Arquitectura Hispam -&amp;nbsp;BSS/OSS&lt;/font&gt;" style="swimlane;whiteSpace=wrap;fillColor=#E6EFFF;swimlaneFillColor=#E6EFFF;fontColor=#660000;fontFamily=Tahoma;html=1;strokeColor=none;startSize=50;" parent="1" vertex="1">
          <mxGeometry x="80" y="20" width="360" height="1280" as="geometry">
            <mxRectangle x="20" y="20" width="80" height="23" as="alternateBounds" />
          </mxGeometry>
        </mxCell>
        <mxCell id="x-U8saCdWv5BzLE1M_aa-1861" value="Analizar Documentos del Negocio" style="whiteSpace=wrap;shadow=0;fontColor=#FFFFFF;fontFamily=Helvetica;fontStyle=1;html=1;fontSize=12;plain-purple;strokeColor=none;fillColor=#23497D;gradientColor=none;" parent="x-U8saCdWv5BzLE1M_aa-1860" vertex="1">
          <mxGeometry x="65" y="140" width="120" height="60" as="geometry" />
        </mxCell>
        <mxCell id="v-S7Pm7b8aDOwCeWG9hE-29" value="" style="edgeStyle=orthogonalEdgeStyle;rounded=1;orthogonalLoop=1;jettySize=auto;html=1;fontSize=11;strokeColor=#23497D;strokeWidth=2;endFill=1;endArrow=open;" edge="1" parent="x-U8saCdWv5BzLE1M_aa-1860" source="x-U8saCdWv5BzLE1M_aa-1850" target="v-S7Pm7b8aDOwCeWG9hE-8">
          <mxGeometry relative="1" as="geometry" />
        </mxCell>
        <mxCell id="x-U8saCdWv5BzLE1M_aa-1850" value="Analizar Perfil Funcional de APIs" style="whiteSpace=wrap;strokeColor=none;fillColor=#23497D;shadow=0;fontColor=#FFFFFF;fontFamily=Helvetica;fontStyle=1;html=1;fontSize=12;" parent="x-U8saCdWv5BzLE1M_aa-1860" vertex="1">
          <mxGeometry x="65" y="240" width="120" height="60" as="geometry" />
        </mxCell>
        <mxCell id="v-S7Pm7b8aDOwCeWG9hE-4" value="" style="edgeStyle=segmentEdgeStyle;strokeColor=#23497D;strokeWidth=2;html=1;endArrow=open;endFill=1;exitX=0.5;exitY=1;exitDx=0;exitDy=0;entryX=0.5;entryY=0;entryDx=0;entryDy=0;" edge="1" parent="x-U8saCdWv5BzLE1M_aa-1860" source="x-U8saCdWv5BzLE1M_aa-1861" target="x-U8saCdWv5BzLE1M_aa-1850">
          <mxGeometry width="100" height="100" relative="1" as="geometry">
            <mxPoint x="-190" y="160" as="sourcePoint" />
            <mxPoint x="-190" y="200" as="targetPoint" />
          </mxGeometry>
        </mxCell>
        <mxCell id="v-S7Pm7b8aDOwCeWG9hE-8" value="Elaborar Blueprint" style="whiteSpace=wrap;strokeColor=none;fillColor=#23497D;shadow=0;fontColor=#FFFFFF;fontFamily=Helvetica;fontStyle=1;html=1;fontSize=12;" vertex="1" parent="x-U8saCdWv5BzLE1M_aa-1860">
          <mxGeometry x="65" y="340" width="120" height="60" as="geometry" />
        </mxCell>
        <mxCell id="v-S7Pm7b8aDOwCeWG9hE-11" value="Inventario de&lt;br&gt;T-Open APIs Hispam" style="shape=document;whiteSpace=wrap;verticalAlign=top;strokeColor=none;fillColor=#67B1E1;shadow=0;fontColor=#FFFFFF;fontFamily=Helvetica;fontStyle=1;html=1;fontSize=12;" vertex="1" parent="x-U8saCdWv5BzLE1M_aa-1860">
          <mxGeometry x="215" y="335" width="110" height="70" as="geometry" />
        </mxCell>
        <mxCell id="v-S7Pm7b8aDOwCeWG9hE-12" value="" style="endArrow=none;html=1;fontColor=#FFFFFF;shadow=0;fontSize=12;fontStyle=1;verticalAlign=middle;strokeColor=#67B1E1;fillColor=#008a00;entryX=0;entryY=0.5;entryDx=0;entryDy=0;strokeWidth=2;exitX=1;exitY=0.5;exitDx=0;exitDy=0;dashed=1;" edge="1" parent="x-U8saCdWv5BzLE1M_aa-1860" target="v-S7Pm7b8aDOwCeWG9hE-11" source="v-S7Pm7b8aDOwCeWG9hE-8">
          <mxGeometry width="50" height="50" relative="1" as="geometry">
            <mxPoint x="131" y="290" as="sourcePoint" />
            <mxPoint x="91.00000000000023" y="160" as="targetPoint" />
          </mxGeometry>
        </mxCell>
        <mxCell id="v-S7Pm7b8aDOwCeWG9hE-13" value="Lineamientos Hispam" style="shape=document;whiteSpace=wrap;verticalAlign=top;strokeColor=none;fillColor=#67B1E1;shadow=0;fontColor=#FFFFFF;fontFamily=Helvetica;fontStyle=1;html=1;fontSize=12;" vertex="1" parent="x-U8saCdWv5BzLE1M_aa-1860">
          <mxGeometry x="215" y="270" width="110" height="60" as="geometry" />
        </mxCell>
        <mxCell id="v-S7Pm7b8aDOwCeWG9hE-14" value="" style="endArrow=none;html=1;fontColor=#FFFFFF;shadow=0;fontSize=12;fontStyle=1;verticalAlign=middle;strokeColor=#67B1E1;fillColor=#008a00;entryX=0;entryY=0.5;entryDx=0;entryDy=0;strokeWidth=2;dashed=1;" edge="1" parent="x-U8saCdWv5BzLE1M_aa-1860" target="v-S7Pm7b8aDOwCeWG9hE-13">
          <mxGeometry width="50" height="50" relative="1" as="geometry">
            <mxPoint x="185" y="370" as="sourcePoint" />
            <mxPoint x="-88.99999999999977" y="70" as="targetPoint" />
          </mxGeometry>
        </mxCell>
        <mxCell id="v-S7Pm7b8aDOwCeWG9hE-18" value="Blueprint" style="shape=document;whiteSpace=wrap;verticalAlign=top;strokeColor=none;fillColor=#67B1E1;shadow=0;fontColor=#FFFFFF;fontFamily=Helvetica;fontStyle=1;html=1;fontSize=12;" vertex="1" parent="x-U8saCdWv5BzLE1M_aa-1860">
          <mxGeometry x="215" y="410" width="110" height="40" as="geometry" />
        </mxCell>
        <mxCell id="v-S7Pm7b8aDOwCeWG9hE-19" value="" style="endArrow=none;html=1;fontColor=#FFFFFF;shadow=0;fontSize=12;fontStyle=1;verticalAlign=middle;strokeColor=#67B1E1;fillColor=#008a00;entryX=0;entryY=0.5;entryDx=0;entryDy=0;strokeWidth=2;exitX=1;exitY=0.5;exitDx=0;exitDy=0;dashed=1;" edge="1" parent="x-U8saCdWv5BzLE1M_aa-1860" source="v-S7Pm7b8aDOwCeWG9hE-8" target="v-S7Pm7b8aDOwCeWG9hE-18">
          <mxGeometry width="50" height="50" relative="1" as="geometry">
            <mxPoint x="185" y="450" as="sourcePoint" />
            <mxPoint x="201" y="320" as="targetPoint" />
          </mxGeometry>
        </mxCell>
        <mxCell id="v-S7Pm7b8aDOwCeWG9hE-30" value="" style="edgeStyle=orthogonalEdgeStyle;rounded=1;orthogonalLoop=1;jettySize=auto;html=1;fontSize=11;strokeColor=#23497D;strokeWidth=2;endFill=1;endArrow=open;" edge="1" parent="x-U8saCdWv5BzLE1M_aa-1860">
          <mxGeometry relative="1" as="geometry">
            <mxPoint x="125" y="400" as="sourcePoint" />
            <mxPoint x="125" y="530" as="targetPoint" />
          </mxGeometry>
        </mxCell>
        <mxCell id="v-S7Pm7b8aDOwCeWG9hE-32" value="¿Se requiere&lt;br&gt;cambios en &lt;br&gt;estructura de &lt;br&gt;T-Open APIS?" style="rhombus;whiteSpace=wrap;html=1;shadow=0;fontColor=#FFFFFF;fontStyle=1;strokeColor=none;fillColor=#23497D;" vertex="1" parent="x-U8saCdWv5BzLE1M_aa-1860">
          <mxGeometry x="50" y="530" width="150" height="130" as="geometry" />
        </mxCell>
        <mxCell id="v-S7Pm7b8aDOwCeWG9hE-34" value="" style="edgeStyle=orthogonalEdgeStyle;rounded=1;orthogonalLoop=1;jettySize=auto;html=1;fontSize=11;strokeColor=#23497D;strokeWidth=2;endFill=1;endArrow=open;" edge="1" parent="x-U8saCdWv5BzLE1M_aa-1860" target="v-S7Pm7b8aDOwCeWG9hE-35">
          <mxGeometry relative="1" as="geometry">
            <mxPoint x="125" y="660" as="sourcePoint" />
          </mxGeometry>
        </mxCell>
        <mxCell id="v-S7Pm7b8aDOwCeWG9hE-35" value="Actualizar Swaggers de T-Open APIs" style="whiteSpace=wrap;strokeColor=none;fillColor=#23497D;shadow=0;fontColor=#FFFFFF;fontFamily=Helvetica;fontStyle=1;html=1;fontSize=12;" vertex="1" parent="x-U8saCdWv5BzLE1M_aa-1860">
          <mxGeometry x="65" y="700" width="120" height="60" as="geometry" />
        </mxCell>
        <mxCell id="v-S7Pm7b8aDOwCeWG9hE-38" value="Swagger de&lt;br&gt;T-Open APIs" style="shape=document;whiteSpace=wrap;verticalAlign=top;strokeColor=none;fillColor=#67B1E1;shadow=0;fontColor=#FFFFFF;fontFamily=Helvetica;fontStyle=1;html=1;fontSize=12;" vertex="1" parent="x-U8saCdWv5BzLE1M_aa-1860">
          <mxGeometry x="224" y="740" width="110" height="60" as="geometry" />
        </mxCell>
        <mxCell id="v-S7Pm7b8aDOwCeWG9hE-39" value="" style="endArrow=none;html=1;fontColor=#FFFFFF;shadow=0;fontSize=12;fontStyle=1;verticalAlign=middle;strokeColor=#67B1E1;fillColor=#008a00;entryX=0;entryY=0.5;entryDx=0;entryDy=0;strokeWidth=2;exitX=1;exitY=0.5;exitDx=0;exitDy=0;dashed=1;" edge="1" parent="x-U8saCdWv5BzLE1M_aa-1860" target="v-S7Pm7b8aDOwCeWG9hE-38">
          <mxGeometry width="50" height="50" relative="1" as="geometry">
            <mxPoint x="185" y="730" as="sourcePoint" />
            <mxPoint x="415.0000000000002" y="480" as="targetPoint" />
          </mxGeometry>
        </mxCell>
        <mxCell id="v-S7Pm7b8aDOwCeWG9hE-84" value="Si" style="edgeLabel;html=1;align=center;verticalAlign=middle;resizable=0;points=[];fontSize=13;" vertex="1" connectable="0" parent="x-U8saCdWv5BzLE1M_aa-1860">
          <mxGeometry x="-80.0042402220343" y="449.9980341000106" as="geometry">
            <mxPoint x="220" y="220" as="offset" />
          </mxGeometry>
        </mxCell>
        <mxCell id="v-S7Pm7b8aDOwCeWG9hE-106" value="No" style="edgeLabel;html=1;align=center;verticalAlign=middle;resizable=0;points=[];fontSize=13;" vertex="1" connectable="0" parent="x-U8saCdWv5BzLE1M_aa-1860">
          <mxGeometry x="-0.004240222034297858" y="449.9980341000106" as="geometry">
            <mxPoint x="33" y="129" as="offset" />
          </mxGeometry>
        </mxCell>
        <mxCell id="v-S7Pm7b8aDOwCeWG9hE-139" value="" style="shape=image;html=1;verticalAlign=top;verticalLabelPosition=bottom;labelBackgroundColor=#ffffff;imageAspect=0;aspect=fixed;image=https://cdn2.iconfinder.com/data/icons/office-icon-set-3/128/users.png;sketch=1;fontSize=13;fontColor=#FF3333;fillColor=#FF3333;" vertex="1" parent="x-U8saCdWv5BzLE1M_aa-1860">
          <mxGeometry x="50" y="10" width="30" height="30" as="geometry" />
        </mxCell>
        <mxCell id="x-U8saCdWv5BzLE1M_aa-1851" value="" style="edgeStyle=segmentEdgeStyle;strokeColor=#23497D;strokeWidth=2;html=1;endArrow=open;endFill=1;entryX=0;entryY=0.5;entryDx=0;entryDy=0;exitX=1;exitY=0.5;exitDx=0;exitDy=0;" parent="1" source="v-S7Pm7b8aDOwCeWG9hE-6" target="x-U8saCdWv5BzLE1M_aa-1861" edge="1">
          <mxGeometry width="100" height="100" relative="1" as="geometry">
            <mxPoint x="90" y="490" as="sourcePoint" />
            <mxPoint x="290" y="190" as="targetPoint" />
            <Array as="points">
              <mxPoint x="110" y="480" />
              <mxPoint x="110" y="190" />
            </Array>
          </mxGeometry>
        </mxCell>
        <mxCell id="v-S7Pm7b8aDOwCeWG9hE-15" value="Si" style="edgeLabel;html=1;align=center;verticalAlign=middle;resizable=0;points=[];fontSize=13;" vertex="1" connectable="0" parent="x-U8saCdWv5BzLE1M_aa-1851">
          <mxGeometry x="-0.8856" y="2" relative="1" as="geometry">
            <mxPoint x="-21" y="-18" as="offset" />
          </mxGeometry>
        </mxCell>
        <mxCell id="v-S7Pm7b8aDOwCeWG9hE-1" value="" style="endArrow=none;html=1;fontColor=#FFFFFF;shadow=0;fontSize=12;fontStyle=1;verticalAlign=middle;strokeColor=#67B1E1;fillColor=#008a00;strokeWidth=2;exitX=0;exitY=0.5;exitDx=0;exitDy=0;entryX=1;entryY=0.5;entryDx=0;entryDy=0;dashed=1;" edge="1" parent="1" source="x-U8saCdWv5BzLE1M_aa-1861" target="x-U8saCdWv5BzLE1M_aa-1903">
          <mxGeometry width="50" height="50" relative="1" as="geometry">
            <mxPoint x="-30" y="210" as="sourcePoint" />
            <mxPoint x="280" y="130" as="targetPoint" />
          </mxGeometry>
        </mxCell>
        <mxCell id="v-S7Pm7b8aDOwCeWG9hE-5" value="" style="endArrow=none;html=1;fontColor=#FFFFFF;shadow=0;fontSize=12;fontStyle=1;verticalAlign=middle;strokeColor=#67B1E1;fillColor=#008a00;entryX=1;entryY=0.5;entryDx=0;entryDy=0;strokeWidth=2;exitX=0;exitY=0.5;exitDx=0;exitDy=0;dashed=1;" edge="1" parent="1" source="x-U8saCdWv5BzLE1M_aa-1850" target="v-S7Pm7b8aDOwCeWG9hE-2">
          <mxGeometry width="50" height="50" relative="1" as="geometry">
            <mxPoint x="134" y="290" as="sourcePoint" />
            <mxPoint x="-70" y="420" as="targetPoint" />
          </mxGeometry>
        </mxCell>
        <mxCell id="v-S7Pm7b8aDOwCeWG9hE-26" value="" style="endArrow=none;html=1;fontColor=#FFFFFF;shadow=0;fontSize=12;fontStyle=1;verticalAlign=middle;strokeColor=#67B1E1;fillColor=#008a00;entryX=0.5;entryY=0;entryDx=0;entryDy=0;strokeWidth=2;dashed=1;exitX=0;exitY=0.5;exitDx=0;exitDy=0;" edge="1" parent="1" source="v-S7Pm7b8aDOwCeWG9hE-18" target="v-S7Pm7b8aDOwCeWG9hE-37">
          <mxGeometry width="50" height="50" relative="1" as="geometry">
            <mxPoint x="30" y="370" as="sourcePoint" />
            <mxPoint x="80" y="705" as="targetPoint" />
          </mxGeometry>
        </mxCell>
        <mxCell id="v-S7Pm7b8aDOwCeWG9hE-40" value="" style="endArrow=none;html=1;fontColor=#FFFFFF;shadow=0;fontSize=12;fontStyle=1;verticalAlign=middle;strokeColor=#67B1E1;fillColor=#008a00;entryX=0;entryY=0.5;entryDx=0;entryDy=0;strokeWidth=2;exitX=1;exitY=0.5;exitDx=0;exitDy=0;dashed=1;" edge="1" parent="1" source="v-S7Pm7b8aDOwCeWG9hE-37" target="v-S7Pm7b8aDOwCeWG9hE-38">
          <mxGeometry width="50" height="50" relative="1" as="geometry">
            <mxPoint x="430" y="760" as="sourcePoint" />
            <mxPoint x="450" y="790" as="targetPoint" />
          </mxGeometry>
        </mxCell>
        <mxCell id="v-S7Pm7b8aDOwCeWG9hE-60" value="&lt;span style=&quot;color: rgb(35 , 73 , 125)&quot;&gt;Arquitectura Hispam - Integración&lt;/span&gt;" style="swimlane;whiteSpace=wrap;fillColor=#D4E1F5;swimlaneFillColor=#D4E1F5;fontColor=#660000;fontFamily=Tahoma;html=1;strokeColor=none;startSize=50;align=center;" vertex="1" parent="1">
          <mxGeometry x="440" y="20" width="340" height="1280" as="geometry">
            <mxRectangle x="20" y="20" width="80" height="23" as="alternateBounds" />
          </mxGeometry>
        </mxCell>
        <mxCell id="v-S7Pm7b8aDOwCeWG9hE-124" value="Actualizar Inventario de&lt;br&gt;T-Open APIs Hispam" style="whiteSpace=wrap;strokeColor=none;fillColor=#23497D;shadow=0;fontColor=#FFFFFF;fontFamily=Helvetica;fontStyle=1;html=1;fontSize=12;" vertex="1" parent="v-S7Pm7b8aDOwCeWG9hE-60">
          <mxGeometry x="30" y="1105" width="120" height="70" as="geometry" />
        </mxCell>
        <mxCell id="v-S7Pm7b8aDOwCeWG9hE-126" value="" style="endArrow=none;html=1;fontColor=#FFFFFF;shadow=0;fontSize=12;fontStyle=1;verticalAlign=middle;strokeColor=#67B1E1;fillColor=#008a00;entryX=0;entryY=0.5;entryDx=0;entryDy=0;strokeWidth=2;exitX=1;exitY=0.5;exitDx=0;exitDy=0;dashed=1;" edge="1" parent="v-S7Pm7b8aDOwCeWG9hE-60" target="v-S7Pm7b8aDOwCeWG9hE-128" source="v-S7Pm7b8aDOwCeWG9hE-124">
          <mxGeometry width="50" height="50" relative="1" as="geometry">
            <mxPoint x="150" y="1110" as="sourcePoint" />
            <mxPoint x="740" y="1040" as="targetPoint" />
          </mxGeometry>
        </mxCell>
        <mxCell id="v-S7Pm7b8aDOwCeWG9hE-128" value="Inventario de&lt;br&gt;T-Open APIs Hispam Actualizado" style="shape=document;whiteSpace=wrap;verticalAlign=top;strokeColor=none;fillColor=#67B1E1;shadow=0;fontColor=#FFFFFF;fontFamily=Helvetica;fontStyle=1;html=1;fontSize=12;" vertex="1" parent="v-S7Pm7b8aDOwCeWG9hE-60">
          <mxGeometry x="190" y="1090" width="100" height="100" as="geometry" />
        </mxCell>
        <mxCell id="v-S7Pm7b8aDOwCeWG9hE-129" value="" style="html=1;shape=mxgraph.flowchart.start_2;whiteSpace=wrap;fontColor=#FFFFFF;shadow=0;fontStyle=1;strokeColor=none;fillColor=#FF3333;" vertex="1" parent="v-S7Pm7b8aDOwCeWG9hE-60">
          <mxGeometry x="225" y="1220" width="30" height="30" as="geometry" />
        </mxCell>
        <mxCell id="v-S7Pm7b8aDOwCeWG9hE-130" value="Fin" style="text;html=1;align=center;verticalAlign=middle;resizable=0;points=[];autosize=1;strokeColor=none;fillColor=none;fontColor=#FF3333;fontStyle=1" vertex="1" parent="v-S7Pm7b8aDOwCeWG9hE-60">
          <mxGeometry x="225" y="1200" width="30" height="20" as="geometry" />
        </mxCell>
        <mxCell id="v-S7Pm7b8aDOwCeWG9hE-132" value="" style="edgeStyle=orthogonalEdgeStyle;rounded=1;orthogonalLoop=1;jettySize=auto;html=1;fontSize=11;strokeColor=#23497D;strokeWidth=2;endFill=1;endArrow=open;" edge="1" parent="v-S7Pm7b8aDOwCeWG9hE-60" source="v-S7Pm7b8aDOwCeWG9hE-124" target="v-S7Pm7b8aDOwCeWG9hE-129">
          <mxGeometry relative="1" as="geometry">
            <mxPoint x="-680" y="980" as="sourcePoint" />
            <mxPoint x="-160" y="1030" as="targetPoint" />
            <Array as="points">
              <mxPoint x="85" y="1235" />
            </Array>
          </mxGeometry>
        </mxCell>
        <mxCell id="v-S7Pm7b8aDOwCeWG9hE-140" value="" style="shape=image;html=1;verticalAlign=top;verticalLabelPosition=bottom;labelBackgroundColor=#ffffff;imageAspect=0;aspect=fixed;image=https://cdn2.iconfinder.com/data/icons/office-icon-set-3/128/users.png;sketch=1;fontSize=13;fontColor=#FF3333;fillColor=#FF3333;" vertex="1" parent="v-S7Pm7b8aDOwCeWG9hE-60">
          <mxGeometry x="30" y="10" width="30" height="30" as="geometry" />
        </mxCell>
        <mxCell id="v-S7Pm7b8aDOwCeWG9hE-85" value="" style="edgeStyle=orthogonalEdgeStyle;rounded=1;orthogonalLoop=1;jettySize=auto;html=1;fontSize=11;strokeColor=#23497D;strokeWidth=2;endFill=1;endArrow=open;exitX=0;exitY=0.5;exitDx=0;exitDy=0;entryX=1;entryY=0.25;entryDx=0;entryDy=0;" edge="1" parent="1" source="v-S7Pm7b8aDOwCeWG9hE-32" target="v-S7Pm7b8aDOwCeWG9hE-37">
          <mxGeometry relative="1" as="geometry">
            <mxPoint x="370" y="690" as="sourcePoint" />
            <mxPoint x="370" y="730" as="targetPoint" />
            <Array as="points">
              <mxPoint x="10" y="615" />
              <mxPoint x="10" y="805" />
            </Array>
          </mxGeometry>
        </mxCell>
        <mxCell id="v-S7Pm7b8aDOwCeWG9hE-110" value="" style="endArrow=none;html=1;fontColor=#FFFFFF;shadow=0;fontSize=12;fontStyle=1;verticalAlign=middle;strokeColor=#67B1E1;fillColor=#008a00;strokeWidth=2;entryX=1;entryY=0.25;entryDx=0;entryDy=0;dashed=1;exitX=0;exitY=0.5;exitDx=0;exitDy=0;" edge="1" parent="1" source="x-U8saCdWv5BzLE1M_aa-1861" target="x-U8saCdWv5BzLE1M_aa-1897">
          <mxGeometry width="50" height="50" relative="1" as="geometry">
            <mxPoint x="300" y="190" as="sourcePoint" />
            <mxPoint x="180" y="260" as="targetPoint" />
          </mxGeometry>
        </mxCell>
        <mxCell id="v-S7Pm7b8aDOwCeWG9hE-115" value="" style="endArrow=none;html=1;fontColor=#FFFFFF;shadow=0;fontSize=12;fontStyle=1;verticalAlign=middle;strokeColor=#67B1E1;fillColor=#008a00;entryX=0;entryY=0.5;entryDx=0;entryDy=0;strokeWidth=2;exitX=1;exitY=0.5;exitDx=0;exitDy=0;dashed=1;" edge="1" parent="1" source="v-S7Pm7b8aDOwCeWG9hE-112" target="v-S7Pm7b8aDOwCeWG9hE-38">
          <mxGeometry width="50" height="50" relative="1" as="geometry">
            <mxPoint x="-10" y="940" as="sourcePoint" />
            <mxPoint x="70" y="900" as="targetPoint" />
          </mxGeometry>
        </mxCell>
        <mxCell id="v-S7Pm7b8aDOwCeWG9hE-127" value="" style="edgeStyle=orthogonalEdgeStyle;rounded=1;orthogonalLoop=1;jettySize=auto;html=1;fontSize=11;strokeColor=#23497D;strokeWidth=2;endFill=1;endArrow=open;exitX=1;exitY=0.5;exitDx=0;exitDy=0;entryX=0;entryY=0.5;entryDx=0;entryDy=0;" edge="1" parent="1" source="v-S7Pm7b8aDOwCeWG9hE-116" target="v-S7Pm7b8aDOwCeWG9hE-124">
          <mxGeometry relative="1" as="geometry">
            <mxPoint x="190" y="1150" as="sourcePoint" />
            <mxPoint x="530" y="1140" as="targetPoint" />
          </mxGeometry>
        </mxCell>
        <mxCell id="v-S7Pm7b8aDOwCeWG9hE-36" value="" style="edgeStyle=segmentEdgeStyle;strokeColor=#23497D;strokeWidth=2;html=1;endArrow=open;endFill=1;entryX=1;entryY=0.5;entryDx=0;entryDy=0;exitX=0.5;exitY=1;exitDx=0;exitDy=0;" edge="1" target="v-S7Pm7b8aDOwCeWG9hE-37" parent="1" source="v-S7Pm7b8aDOwCeWG9hE-35">
          <mxGeometry width="100" height="100" relative="1" as="geometry">
            <mxPoint x="350" y="780" as="sourcePoint" />
            <mxPoint x="270" y="640" as="targetPoint" />
            <Array as="points">
              <mxPoint x="205" y="820" />
            </Array>
          </mxGeometry>
        </mxCell>
        <mxCell id="v-S7Pm7b8aDOwCeWG9hE-136" value="Gobierno de T-Open APIs" style="text;html=1;align=center;verticalAlign=middle;resizable=0;points=[];autosize=1;strokeColor=none;fillColor=none;fontSize=21;fontColor=#23497D;fontStyle=1" vertex="1" parent="1">
          <mxGeometry x="125" y="-30" width="270" height="30" as="geometry" />
        </mxCell>
      </root>
    </mxGraphModel>
  </diagram>
</mxfile>
